<svg xmlns="http://www.w3.org/2000/svg" width="420.542" height="300" viewBox="0 0 420.542 300"><g transform="translate(10)" fill="#fff"><path d="M 150 290 C 72.80374908447266 290 10 227.1962432861328 10 150 C 10 72.80374908447266 72.80374908447266 10 150 10 C 227.1962432861328 10 290 72.80374908447266 290 150 C 290 227.1962432861328 227.1962432861328 290 150 290 Z" stroke="none"/><path d="M 150 20 C 78.31776428222656 20 20 78.31776428222656 20 150 C 20 221.6822357177734 78.31776428222656 280 150 280 C 221.6822357177734 280 280 221.6822357177734 280 150 C 280 78.31776428222656 221.6822357177734 20 150 20 M 150 0 C 232.8427124023438 0 300 67.15728759765625 300 150 C 300 232.8427124023438 232.8427124023438 300 150 300 C 67.15728759765625 300 0 232.8427124023438 0 150 C 0 67.15728759765625 67.15728759765625 0 150 0 Z" stroke="none" fill="#8a0000"/></g><g transform="translate(-31 -244)"><g transform="translate(250.769 368.156)" fill="#2c3e50"><path d="M 33.0402717590332 138.381103515625 C 32.93015670776367 138.381103515625 32.81538772583008 138.3735198974609 32.69915390014648 138.3585205078125 C 31.70711708068848 138.2307891845703 30.86303901672363 137.6891021728516 30.11877059936523 136.7025299072266 C 27.43427085876465 133.1440277099609 26.41457748413086 124.0371398925781 27.16996383666992 110.3663330078125 C 27.74457931518555 99.96702575683594 29.16007804870605 90.53202819824219 29.17430877685547 90.43791198730469 L 29.22796249389648 90.08302307128906 L 28.90888595581055 89.91864013671875 C 27.0833854675293 88.97833251953125 25.33446311950684 88.50152587890625 23.71077156066895 88.50152587890625 C 20.34304046630859 88.50152587890625 17.40719413757324 90.49756622314453 14.73542499542236 94.60367584228516 C 12.43650150299072 98.13679504394531 10.61130905151367 102.749641418457 8.846232414245605 107.2106399536133 C 5.887732028961182 114.6877517700195 3.093347549438477 121.7501754760742 -1.213536977767944 121.7505645751953 C -2.420614004135132 121.7506790161133 -3.762344598770142 121.1896820068359 -5.201459884643555 120.083137512207 C -6.797536849975586 118.8559112548828 -8.570229530334473 116.9148330688477 -10.47038269042969 114.313835144043 L -10.49276733398438 114.2831802368164 L -10.5195369720459 114.2562561035156 C -10.56046009063721 114.2151031494141 -10.57311344146729 114.1844100952148 -10.57165241241455 114.1299438476563 C -10.56622886657715 113.9310989379883 -10.38480663299561 113.5087203979492 -9.551305770874023 112.6259078979492 C -8.846460342407227 111.8793716430664 -7.835152149200439 110.9671783447266 -6.664190769195557 109.9109497070313 C 0.05115532130002975 103.8536758422852 12.55100154876709 92.57875823974609 8.599270820617676 75.27652740478516 L 8.539385795593262 75.01437377929688 L 8.287616729736328 74.91979217529297 C 4.785232067108154 73.60433197021484 1.150347590446472 72.93729400634766 -2.516113996505737 72.93729400634766 C -14.00607585906982 72.93729400634766 -24.41142082214355 79.22383117675781 -34.47415161132813 85.30336761474609 C -43.24334335327148 90.60140991210938 -51.52622985839844 95.60563659667969 -59.47119140625 95.60679626464844 C -59.47203826904297 95.60679626464844 -59.47319412231445 95.60679626464844 -59.47404098510742 95.60679626464844 C -61.10324096679688 95.60681915283203 -62.69855880737305 95.39059448242188 -64.22179412841797 94.96372222900391 C -64.68254089355469 91.86025238037109 -64.63646697998047 89.02710723876953 -64.08441925048828 86.53794860839844 C -63.55803680419922 84.16456604003906 -62.55415344238281 82.03041076660156 -61.10065078735352 80.19483184814453 C -58.08807373046875 76.39033508300781 -53.1109619140625 73.70709991455078 -45.88488388061523 71.99182891845703 C -39.59234619140625 70.49813842773438 -32.68926620483398 69.98545074462891 -26.59876823425293 69.53314208984375 C -17.39249801635742 68.84937286376953 -10.7408447265625 68.35536956787109 -10.37684440612793 64.89606475830078 L -10.35326766967773 64.67202758789063 L -10.5054988861084 64.50595092773438 C -16.26469039916992 58.2214469909668 -20.10684394836426 51.17502593994141 -21.92526817321777 43.56233215332031 C -23.41934394836426 37.30764007568359 -23.20722961425781 32.23806381225586 -23.08049774169922 29.2091007232666 C -23.05415153503418 28.57952499389648 -23.03142166137695 28.0357551574707 -23.03142166137695 27.60967826843262 C -23.03142166137695 8.504678726196289 -41.33322906494141 5.493062973022461 -56.03899765014648 3.073178291320801 C -60.18495941162109 2.390947580337524 -64.10099792480469 1.746562957763672 -67.22100067138672 0.803062915802002 C -70.60976409912109 -0.2216678261756897 -72.63988494873047 -1.465475559234619 -73.60992431640625 -3.111206293106079 C -74.46253967285156 -4.557783126831055 -74.48857879638672 -6.35020637512207 -73.68961334228516 -8.590898513793945 C -73.11161041259766 -10.21189880371094 -72.23211669921875 -11.36574459075928 -71.00084686279297 -12.11828327178955 C -69.85472869873047 -12.81878280639648 -68.42665100097656 -13.15932178497314 -66.63500213623047 -13.15932178497314 C -61.57838439941406 -13.15932178497314 -54.66161346435547 -10.41662979125977 -47.33869171142578 -7.512898445129395 C -39.2553825378418 -4.307629585266113 -30.89688301086426 -0.9932447671890259 -24.08869171142578 -0.9919370412826538 C -24.08771514892578 -0.9919368624687195 -24.08567810058594 -0.9919367432594299 -24.08470344543457 -0.9919367432594299 C -16.12352752685547 -0.9919367432594299 -11.64367961883545 -5.58403491973877 -10.38887691497803 -15.03181171417236 C -8.741496086120605 -18.4399585723877 -7.507145881652832 -20.46732521057129 -6.390806198120117 -21.59959030151367 C -5.272806167602539 -22.73355293273926 -4.262575626373291 -22.96589851379395 -3.089652299880981 -22.96589851379395 C -2.441267728805542 -22.96589851379395 -1.716575503349304 -22.89109039306641 -0.8774600625038147 -22.8044376373291 C 0.2930399477481842 -22.68362998962402 1.61965537071228 -22.54666709899902 3.272924661636353 -22.54666709899902 C 8.341540336608887 -22.54666709899902 14.1282320022583 -23.95070648193359 20.96373176574707 -26.83901405334473 C 24.70069313049316 -28.41805267333984 27.14973258972168 -30.78778266906738 28.24288558959961 -33.88235855102539 C 29.43065452575684 -37.24489974975586 29.07000160217285 -41.49216842651367 27.1402702331543 -46.86685943603516 C 25.48100090026855 -51.48832321166992 22.88204002380371 -56.33882141113281 20.58904075622559 -60.61832046508789 C 18.83807754516602 -63.88616943359375 17.18423271179199 -66.97282409667969 16.18573188781738 -69.50312805175781 C 15.13961696624756 -72.15409088134766 14.9243860244751 -73.93267059326172 15.52777099609375 -74.94051361083984 C 16.01288604736328 -75.75078582763672 17.07942390441895 -76.14466857910156 18.78838539123535 -76.14466857910156 C 19.35673141479492 -76.14466857910156 20.00165557861328 -76.09870910644531 20.70527076721191 -76.00808715820313 C 23.0828857421875 -75.70193481445313 25.0749626159668 -74.93620300292969 26.79523277282715 -73.66716766357422 C 28.33015441894531 -72.53485870361328 29.61804008483887 -71.02082061767578 30.73246383666992 -69.03855133056641 C 32.83169555664063 -65.30455017089844 33.97000122070313 -60.45151519775391 35.07084655761719 -55.75824356079102 C 36.22146224975586 -50.85274505615234 37.41123199462891 -45.78020477294922 39.71007919311523 -42.02609252929688 C 42.33358001708984 -37.74170684814453 46.13134765625 -35.65901565551758 51.32030868530273 -35.65901565551758 C 52.66165542602539 -35.65901565551758 54.12353897094727 -35.79997634887695 55.66538619995117 -36.07793807983398 C 59.68046188354492 -36.80182266235352 62.49457931518555 -38.46405410766602 64.26861572265625 -41.15970611572266 C 68.29527282714844 -47.27828216552734 65.90788269042969 -57.55205154418945 63.59911727905273 -67.48759460449219 C 62.47111511230469 -72.34178161621094 61.40569305419922 -76.92674255371094 61.04015350341797 -81.03936004638672 C 60.84561538696289 -83.22808837890625 60.87046432495117 -85.06594085693359 61.11611557006836 -86.65789794921875 C 61.38615417480469 -88.40785980224609 61.91438674926758 -89.81828308105469 62.73092269897461 -90.96981811523438 C 64.17811584472656 -93.01062774658203 66.51346588134766 -94.18097686767578 69.87042236328125 -94.54778289794922 C 70.52915191650391 -94.61974334716797 71.16138458251953 -94.65624237060547 71.74965667724609 -94.65624237060547 C 74.54084777832031 -94.65624237060547 76.51130676269531 -93.86759185791016 77.77357482910156 -92.24517059326172 C 79.38707733154297 -90.17136383056641 79.86488342285156 -86.64493560791016 79.23434448242188 -81.46440124511719 C 78.65961456298828 -76.74216461181641 77.22695922851563 -71.09381866455078 75.84149932861328 -65.63143920898438 C 74.23073577880859 -59.28074645996094 72.56511688232422 -52.71378326416016 72.12442779541016 -47.24139785766602 C 71.61711883544922 -40.94243621826172 72.83831024169922 -36.85136032104492 75.85773468017578 -34.73439788818359 C 79.41680908203125 -32.23905181884766 83.00450134277344 -30.97382164001465 86.52108001708984 -30.97382164001465 C 90.94461822509766 -30.97382164001465 94.45207977294922 -32.99924468994141 96.61550140380859 -34.69836044311523 C 98.46329498291016 -36.14958190917969 99.65241241455078 -37.58872222900391 100.0944747924805 -38.16360855102539 C 100.6381072998047 -37.94710922241211 101.3034515380859 -36.99689483642578 101.9494247436523 -36.07428359985352 C 103.1754608154297 -34.32332229614258 104.7012710571289 -32.14416885375977 107.0563888549805 -32.14416885375977 C 109.3874664306641 -32.14416885375977 112.0074234008789 -34.32936096191406 115.0660400390625 -38.82466888427734 C 118.6565933227539 -44.10180282592773 122.9937210083008 -52.81943893432617 127.9586639404297 -64.73891448974609 C 129.5708923339844 -65.60381317138672 130.9082794189453 -66.04220581054688 131.9355773925781 -66.04220581054688 C 132.8421478271484 -66.04220581054688 133.4742736816406 -65.69840240478516 133.8679656982422 -64.99105072021484 C 134.9120330810547 -63.11543655395508 134.2901153564453 -58.88813018798828 132.1168060302734 -53.08786010742188 C 129.8100433349609 -46.93147659301758 125.9006958007813 -39.33809280395508 120.8114242553711 -31.12859153747559 L 120.7649230957031 -31.05359077453613 L 120.7469253540039 -30.96724510192871 C 120.5256576538086 -29.90670585632324 120.6470413208008 -29.08159065246582 121.1077728271484 -28.51478385925293 C 121.5827713012695 -27.93047523498535 122.3739242553711 -27.64643669128418 123.5263824462891 -27.64643669128418 C 125.2400817871094 -27.64643669128418 127.5557708740234 -28.26509094238281 130.0074615478516 -28.92005157470703 C 132.5068054199219 -29.58778381347656 135.0912780761719 -30.27824401855469 136.9989318847656 -30.27824401855469 C 139.1550445556641 -30.27824401855469 139.5912322998047 -29.4007453918457 139.7303924560547 -28.63628387451172 L 139.7680358886719 -28.42939949035645 L 139.9422760009766 -28.31159019470215 C 144.3432006835938 -25.33624458312988 145.941650390625 -15.17489814758301 146.8004302978516 -9.715821266174316 C 147.2927398681641 -6.586167812347412 147.4454650878906 -5.823629379272461 147.8160858154297 -5.519744873046875 C 148.5084686279297 -4.952090740203857 149.2870788574219 -4.664283275604248 150.1303100585938 -4.664283275604248 C 153.1028442382813 -4.664283275604248 156.3501129150391 -8.159283638000488 159.7880401611328 -11.8595142364502 C 162.9461975097656 -15.25862979888916 166.2118835449219 -18.7734375 168.7784271240234 -18.7734375 C 170.5181884765625 -18.7734375 171.8893432617188 -17.08193778991699 172.9701995849609 -13.60224437713623 C 174.4747772216797 -8.758437156677246 168.4023132324219 -3.236783266067505 162.5298156738281 2.103101491928101 C 158.5462646484375 5.725293636322021 154.78369140625 9.146601676940918 153.2195739746094 12.41879367828369 C 152.2047729492188 14.54210186004639 152.0945434570313 16.64356231689453 152.8919677734375 18.66479301452637 C 153.7378540039063 20.80887031555176 155.564697265625 22.80610084533691 158.3217315673828 24.60102462768555 C 159.8444366455078 25.59237480163574 161.2176361083984 26.2324390411377 161.8401947021484 26.5027027130127 C 161.6830596923828 27.30117416381836 160.9801025390625 28.15098762512207 160.2976226806641 28.97598648071289 C 159.3074188232422 30.17290878295898 158.2835388183594 31.41060066223145 158.8506164550781 32.68487167358398 C 159.4785003662109 34.09575653076172 162.0356597900391 35.09183120727539 167.1419677734375 35.91460037231445 C 172.8385162353516 36.83243942260742 181.835205078125 37.54303741455078 194.6423492431641 38.08664321899414 C 199.7973175048828 41.63333129882813 200.5184478759766 43.56371688842773 200.2103424072266 44.56013870239258 C 199.9543914794922 45.38783264160156 198.6840362548828 46.50994873046875 194.0854187011719 47.15548706054688 C 190.3375396728516 47.68160247802734 185.4660034179688 47.74914169311523 181.6406097412109 47.74917984008789 C 179.9651947021484 47.74917984008789 178.2994232177734 47.73463821411133 176.6884613037109 47.72052383422852 C 175.1803436279297 47.70733261108398 173.7558898925781 47.69490814208984 172.4127655029297 47.69490814208984 C 166.7312316894531 47.69490814208984 164.4329986572266 47.93764114379883 163.6302337646484 48.62252426147461 L 163.6250457763672 48.62694931030273 L 163.6199645996094 48.63152313232422 C 155.7003021240234 55.77056121826172 158.4351196289063 60.23460006713867 160.6325378417969 63.82156372070313 C 161.4418487548828 65.14256286621094 162.2062377929688 66.39029693603516 162.3457336425781 67.61582946777344 C 162.495849609375 68.93463897705078 161.8952331542969 70.15325164794922 160.4556579589844 71.45098876953125 C 158.4238128662109 73.28256225585938 156.8318023681641 73.51752471923828 155.6718444824219 73.51763916015625 C 155.1342315673828 73.51767730712891 154.6117248535156 73.46152496337891 154.1064605712891 73.40721893310547 C 153.6038513183594 73.35321807861328 153.1290740966797 73.30217742919922 152.6432342529297 73.30217742919922 C 151.3087005615234 73.30217742919922 149.7171173095703 73.65859985351563 148.0313873291016 76.30198669433594 C 146.4129943847656 78.83975219726563 144.7837371826172 83.26641082763672 142.9038848876953 90.23287200927734 C 138.8607635498047 105.2162170410156 150.7883453369141 113.0290222167969 159.4974670410156 118.7336807250977 C 163.9726867675781 121.6650619506836 167.8376617431641 124.1966781616211 167.9185333251953 126.7090606689453 C 167.9584655761719 127.9486770629883 167.0811920166016 129.2248687744141 165.236572265625 130.6105194091797 C 164.5011596679688 131.1629791259766 163.7560424804688 131.78076171875 163.0355072021484 132.378173828125 C 160.5636901855469 134.4275665283203 158.0077667236328 136.5467224121094 155.2829284667969 136.5473327636719 C 153.2488861083984 136.5477905273438 151.2610473632813 135.37255859375 149.2057647705078 132.9545288085938 C 146.7386169433594 130.0519104003906 144.2395782470703 125.4610214233398 141.5658416748047 118.919563293457 C 138.529541015625 111.4911041259766 135.9677276611328 106.6657180786133 133.5037384033203 103.7338714599609 C 131.0809173583984 100.8509826660156 128.6203918457031 99.56540679931641 125.5255813598633 99.56540679931641 C 122.6225051879883 99.56540679931641 119.3833465576172 100.6983337402344 115.2824630737305 102.1326370239258 C 112.8290405273438 102.9907531738281 110.0482711791992 103.9633712768555 106.8619232177734 104.8569869995117 C 105.8328857421875 105.1455612182617 104.8237686157227 105.2858734130859 103.7768859863281 105.2859115600586 C 100.6153869628906 105.2859878540039 97.77008056640625 103.989372253418 94.75777435302734 102.6166000366211 C 91.60184478759766 101.1784057617188 88.3385009765625 99.69125366210938 84.54780578613281 99.69125366210938 C 83.897705078125 99.69125366210938 83.24105834960938 99.73602294921875 82.59297180175781 99.82440948486328 C 82.06620025634766 99.48426055908203 81.58910369873047 99.31848907470703 81.13926696777344 99.31848907470703 C 78.74488830566406 99.31848907470703 78.42200469970703 103.6916046142578 78.01319122314453 109.2281799316406 C 77.74922943115234 112.8031768798828 77.45004272460938 116.8552169799805 76.53242492675781 119.9274444580078 C 76.04669189453125 121.5537185668945 75.44403839111328 122.7465209960938 74.68996429443359 123.5740661621094 C 73.87215423583984 124.471565246582 72.89411926269531 124.9079055786133 71.69996643066406 124.9079895019531 C 71.38211822509766 124.9079895019531 71.0443115234375 124.8761367797852 70.6959228515625 124.8133316040039 C 69.21945953369141 124.5471801757813 68.05461883544922 123.7949066162109 67.13473510742188 122.5135269165039 C 66.29569244384766 121.3447570800781 65.67988586425781 119.7686767578125 65.25211334228516 117.6952972412109 C 64.44757843017578 113.7955627441406 64.48081207275391 108.9623336791992 64.51292419433594 104.288215637207 C 64.56330871582031 96.95248413085938 64.60684967041016 90.61710357666016 61.22130966186523 89.874755859375 C 59.64369201660156 89.52883148193359 58.13177108764648 89.35340881347656 56.72757720947266 89.35340881347656 C 50.20169448852539 89.35340881347656 45.58550262451172 92.98898315429688 42.61523056030273 100.4679107666016 C 40.09400177001953 106.8161773681641 39.16115570068359 114.9046783447266 38.33811569213867 122.0410232543945 C 37.81869506835938 126.5449447631836 37.32804107666016 130.7991027832031 36.50450134277344 133.8079071044922 C 35.65053939819336 136.9278717041016 34.54973220825195 138.3810272216797 33.0402717590332 138.381103515625 Z" stroke="none"/><path d="M 71.74964141845703 -94.15624237060547 C 71.17960357666016 -94.15624237060547 70.56560516357422 -94.12075042724609 69.92472076416016 -94.05074310302734 C 66.7181396484375 -93.70035552978516 64.49845123291016 -92.59796905517578 63.13875579833984 -90.68059539794922 C 61.67167663574219 -88.61167144775391 61.14810180664063 -85.47248077392578 61.53817749023438 -81.08359527587891 C 61.90060424804688 -77.005859375 62.96221923828125 -72.43740081787109 64.08614349365234 -67.60074615478516 C 66.41875457763672 -57.56251525878906 68.83083343505859 -47.18255615234375 64.68625640869141 -40.88481903076172 C 62.85868072509766 -38.10774230957031 59.85344696044922 -36.32493591308594 55.75410461425781 -35.58589935302734 C 54.18302154541016 -35.30262756347656 52.69125366210938 -35.15901184082031 51.32033538818359 -35.15901184082031 C 45.94287109375 -35.15901184082031 42.00563812255859 -37.31982421875 39.28367614746094 -41.76497650146484 C 36.94283294677734 -45.58770751953125 35.74371337890625 -50.70005035400391 34.58406066894531 -55.64405059814453 C 33.49118041992188 -60.30339813232422 32.36109924316406 -65.12132263183594 30.29663848876953 -68.79351043701172 C 28.03263854980469 -72.82058715820313 24.964599609375 -74.95551300048828 20.64141082763672 -75.51224517822266 C 19.95845031738281 -75.60016632080078 19.33502197265625 -75.64474487304688 18.78848266601563 -75.64470672607422 C 17.29129028320313 -75.64463043212891 16.33856201171875 -75.32120513916016 15.95679473876953 -74.68347930908203 C 15.44571685791016 -73.82974243164063 15.67921447753906 -72.14839935302734 16.65087127685547 -69.68616485595703 C 17.63871765136719 -67.18282318115234 19.28594970703125 -64.10858917236328 21.02986907958984 -60.85385894775391 C 23.33102416992188 -56.5592041015625 25.93917846679688 -51.69155120849609 27.61087036132813 -47.03551483154297 C 29.58106231689453 -41.54820251464844 29.94198608398438 -37.1912841796875 28.71433258056641 -33.7158203125 C 27.57241058349609 -30.48316955566406 25.03022003173828 -28.01451110839844 21.15833282470703 -26.37844085693359 C 14.26010131835938 -23.46359252929688 8.409759521484375 -22.04666900634766 3.27294921875 -22.04666900634766 C 1.593948364257813 -22.04666900634766 0.1951446533203125 -22.19109344482422 -0.9288177490234375 -22.30709075927734 C -1.754165649414063 -22.39231872558594 -2.467010498046875 -22.46589660644531 -3.08966064453125 -22.46589660644531 C -4.166900634765625 -22.46589660644531 -5.035324096679688 -22.26224517822266 -6.034744262695313 -21.24855041503906 C -7.103317260742188 -20.16473388671875 -8.298965454101563 -18.19930267333984 -9.903976440429688 -14.88607025146484 C -11.21199035644531 -5.200550079345703 -15.85311889648438 -0.4919357299804688 -24.088623046875 -0.4919357299804688 C -30.99275207519531 -0.4919357299804688 -39.39689636230469 -3.824935913085938 -47.52432250976563 -7.048168182373047 C -54.80105590820313 -9.934013366699219 -61.67416381835938 -12.65982055664063 -66.63490295410156 -12.65932083129883 C -70.09620666503906 -12.658935546875 -72.18824768066406 -11.31282043457031 -73.21867370605469 -8.4229736328125 C -73.96478271484375 -6.330513000488281 -73.95185852050781 -4.676090240478516 -73.17916870117188 -3.365089416503906 C -72.28916931152344 -1.855052947998047 -70.29289245605469 -0.6482048034667969 -67.07632446289063 0.3244857788085938 C -63.98759460449219 1.258487701416016 -60.08720397949219 1.900295257568359 -55.95782470703125 2.579792022705078 C -48.62936401367188 3.785717010498047 -40.32308959960938 5.152523040771484 -33.86125183105469 8.604831695556641 C -26.23744201660156 12.67787170410156 -22.53143310546875 18.8944091796875 -22.53143310546875 27.60967826843262 C -22.53143310546875 28.04621696472168 -22.55439758300781 28.59479331970215 -22.58097839355469 29.23002433776855 C -22.70658874511719 32.23298645019531 -22.91685485839844 37.25910186767578 -21.43898010253906 43.4461784362793 C -19.64051818847656 50.97517776489258 -15.83798217773438 57.94706344604492 -10.13690185546875 64.16813659667969 L -9.832473754882813 64.50028991699219 L -9.879623413085938 64.94841003417969 C -10.1414794921875 67.43695068359375 -13.16877746582031 68.34890747070313 -15.42317199707031 68.81837463378906 C -18.30516052246094 69.41852569580078 -22.13136291503906 69.70271301269531 -26.56173706054688 70.03175354003906 C -32.63363647460938 70.48271942138672 -39.515625 70.99383544921875 -45.76939392089844 72.47829437255859 C -52.88189697265625 74.16660308837891 -57.76858520507813 76.79225158691406 -60.70870971679688 80.50525665283203 C -62.11485290527344 82.28109741210938 -63.08639526367188 84.34721374511719 -63.59628295898438 86.64621734619141 C -64.11595153808594 88.98924255371094 -64.17523193359375 91.65122985839844 -63.77345275878906 94.56727600097656 C -62.38125610351563 94.92987060546875 -60.96742248535156 95.10679626464844 -59.47113037109375 95.10679626464844 C -51.66505432128906 95.10679626464844 -43.43954467773438 90.13698577880859 -34.73104858398438 84.87541198730469 C -24.61019897460938 78.76045227050781 -14.144775390625 72.43729400634766 -2.516128540039063 72.43729400634766 C 1.210601806640625 72.43729400634766 4.904632568359375 73.11506652832031 8.463455200195313 74.45172119140625 L 8.966987609863281 74.64083099365234 L 9.086715698242188 75.16521453857422 C 13.10375213623047 92.75348663330078 0.46221923828125 104.15625 -6.329315185546875 110.2822113037109 C -7.444976806640625 111.2885589599609 -8.408477783203125 112.1576766967773 -9.095016479492188 112.8718338012695 C -9.743301391601563 113.5462265014648 -9.962600708007813 113.9024200439453 -10.03643798828125 114.0602416992188 C -6.5439453125 118.8315200805664 -3.57568359375 121.2505645751953 -1.213516235351563 121.2505645751953 C 0.5219879150390625 121.2505645751953 2.11395263671875 119.9587173461914 3.796493530273438 117.1850280761719 C 5.423065185546875 114.5036010742188 6.860031127929688 110.8718338012695 8.381378173828125 107.0268325805664 C 10.15556335449219 102.5428695678711 11.99010467529297 97.90625 14.31640625 94.33102416992188 C 17.08767700195313 90.07191467285156 20.16059875488281 88.00152587890625 23.71075439453125 88.00152587890625 C 25.41487121582031 88.00152587890625 27.24079132080078 88.49698638916016 29.13783264160156 89.47413635253906 L 29.77598571777344 89.80290985107422 L 29.66867828369141 90.51268005371094 C 29.65444946289063 90.60659790039063 28.24171447753906 100.0247955322266 27.66879272460938 110.4012145996094 C 27.33356475830078 116.4725646972656 27.34717559814453 121.6755981445313 27.70929718017578 125.8657913208008 C 28.15048980712891 130.9711761474609 29.09548950195313 134.515869140625 30.51798248291016 136.4014587402344 C 31.17698669433594 137.2750244140625 31.91136932373047 137.7529449462891 32.7630615234375 137.8626403808594 C 32.85817718505859 137.8748779296875 32.95144653320313 137.881103515625 33.04029083251953 137.881103515625 C 33.42129516601563 137.881103515625 34.00006103515625 137.7848358154297 34.62464141845703 136.9524841308594 C 35.14779663085938 136.2552490234375 35.61802673339844 135.1529083251953 36.02225494384766 133.676025390625 C 36.83571624755859 130.7040710449219 37.32421875 126.4682922363281 37.84140777587891 121.9838714599609 C 38.66802215576172 114.8166809082031 39.60491180419922 106.6932220458984 42.15056610107422 100.2834091186523 C 45.20510101318359 92.59217834472656 49.97329711914063 88.85340881347656 56.72760009765625 88.85340881347656 C 58.16767883300781 88.85340881347656 59.71559906005859 89.03271484375 61.32840728759766 89.38633728027344 C 63.73233032226563 89.9134521484375 64.39994812011719 92.72395324707031 64.69298553466797 94.79209899902344 C 65.06037139892578 97.38467407226563 65.03729248046875 100.7396774291992 65.01290893554688 104.2916793823242 C 64.98098754882813 108.9398345947266 64.94794464111328 113.7462539672852 65.74182891845703 117.5942535400391 C 66.15509796142578 119.5975646972656 66.74359893798828 121.1112899780273 67.54094696044922 122.2219467163086 C 68.38129425048828 123.3926010131836 69.44232940673828 124.0792922973633 70.78459930419922 124.3212585449219 C 71.10383605957031 124.378791809082 71.41179656982422 124.4079895019531 71.69998931884766 124.4079895019531 C 72.97598266601563 124.4079895019531 74.81556701660156 123.9287185668945 76.05332946777344 119.7845993041992 C 76.95541381835938 116.7644119262695 77.25244903564453 112.7411422729492 77.51456451416016 109.1914825439453 C 77.70375061035156 106.62890625 77.88248443603516 104.2084808349609 78.26528930664063 102.4179840087891 C 78.45564270019531 101.527717590332 79.034912109375 98.8184814453125 81.13925170898438 98.8184814453125 C 81.63994598388672 98.8184814453125 82.15503692626953 98.97831726074219 82.70500183105469 99.30560302734375 C 83.31710815429688 99.22966003417969 83.93525695800781 99.19125366210938 84.54779052734375 99.19125366210938 C 88.44709777832031 99.19125366210938 91.76071166992188 100.7012939453125 94.96521759033203 102.1616058349609 C 97.92671203613281 103.5111770629883 100.7239532470703 104.7859039306641 103.7768707275391 104.7859039306641 C 104.7773742675781 104.7859039306641 105.7423324584961 104.6516799926758 106.7268676757813 104.3755645751953 C 109.8980255126953 103.4862213134766 112.6708679199219 102.5163726806641 115.1172943115234 101.6607208251953 C 119.2630233764648 100.2107162475586 122.5375671386719 99.06541442871094 125.5256042480469 99.06541442871094 C 128.7374877929688 99.06541442871094 131.3942108154297 100.4466400146484 133.8865203857422 103.4121780395508 C 136.3849029541016 106.3849868774414 138.9721374511719 111.2524490356445 142.0286407470703 118.7304077148438 C 144.6451416015625 125.1317901611328 147.1880187988281 129.8084106445313 149.5867156982422 132.6303405761719 C 151.5411376953125 134.9296417236328 153.4044036865234 136.0473327636719 155.2830200195313 136.0473327636719 C 157.8273010253906 136.0473327636719 160.3124847412109 133.9866333007813 162.7158355712891 131.9938049316406 C 163.4411315917969 131.3924102783203 164.1911010742188 130.7705230712891 164.9362945556641 130.2107543945313 C 166.6173706054688 128.9479064941406 167.45263671875 127.7751770019531 167.4188385009766 126.7251434326172 C 167.3878784179688 125.7637939453125 166.6516723632813 124.6675643920898 165.1681823730469 123.3737564086914 C 163.6574401855469 122.0562133789063 161.5036773681641 120.6454849243164 159.2234802246094 119.1519088745117 C 150.3864135742188 113.363410949707 138.2836456298828 105.4358367919922 142.4211730957031 90.10260009765625 C 144.3146057128906 83.08567810058594 145.9633331298828 78.614990234375 147.6098327636719 76.03314208984375 C 149.0540313720703 73.76844787597656 150.5593719482422 72.80217742919922 152.6432495117188 72.80217742919922 C 153.1559448242188 72.80217742919922 153.6664123535156 72.85702514648438 154.1600646972656 72.91006469726563 C 154.6521759033203 72.96295166015625 155.1610565185547 73.01760101318359 155.671875 73.01760101318359 C 156.8087158203125 73.01760101318359 158.2263793945313 72.78733062744141 160.1208648681641 71.07955932617188 C 161.8409118652344 69.52906036376953 161.9308776855469 68.39244842529297 161.8489074707031 67.67237091064453 C 161.7219543457031 66.55694580078125 160.9856719970703 65.35514068603516 160.2061767578125 64.08275604248047 C 159.0684509277344 62.22560119628906 157.7789154052734 60.12063980102539 157.8311767578125 57.49329376220703 C 157.8900604248047 54.53548431396484 159.6740570068359 51.51529312133789 163.2851867675781 48.26013946533203 L 163.2952880859375 48.25102615356445 L 163.3056793212891 48.24214172363281 C 164.2234497070313 47.45917892456055 166.521484375 47.19490814208984 172.4127502441406 47.19490814208984 C 173.7586059570313 47.19490814208984 175.1847229003906 47.20737075805664 176.6945648193359 47.22056198120117 C 178.3039093017578 47.23463821411133 179.9679870605469 47.24917984008789 181.6405944824219 47.24917984008789 C 185.4496002197266 47.24917984008789 190.2984924316406 47.18225479125977 194.015869140625 46.66040802001953 C 198.7538757324219 45.99533081054688 199.5921325683594 44.86679458618164 199.7326354980469 44.4124870300293 C 199.9186096191406 43.8110237121582 199.4028015136719 42.98848724365234 198.9372863769531 42.4044075012207 C 198.0686492919922 41.31434631347656 196.5686645507813 40.02837753295898 194.4770355224609 38.58008575439453 C 181.7265319824219 38.03641128540039 172.757080078125 37.32575607299805 167.0624542236328 36.40821838378906 C 161.6997985839844 35.5441780090332 159.1073303222656 34.49144744873047 158.3938293457031 32.88817596435547 C 157.7007141113281 31.33071708679199 158.8756713867188 29.91036987304688 159.9123687744141 28.65725517272949 C 160.4183807373047 28.04558181762695 160.9743041992188 27.37358283996582 161.2297515869141 26.77839279174805 C 159.2547760009766 25.87137794494629 154.1300506591797 23.1653938293457 152.4268341064453 18.84829330444336 C 151.576416015625 16.69264030456543 151.6913299560547 14.4569091796875 152.7684478759766 12.20314025878906 C 154.3747863769531 8.842563629150391 158.172607421875 5.389255523681641 162.1934051513672 1.733139038085938 C 165.1292572021484 -0.9363975524902344 168.1650238037109 -3.696823120117188 170.207763671875 -6.358051300048828 C 171.2705230712891 -7.742668151855469 171.9754028320313 -8.975784301757813 172.3626708984375 -10.12782287597656 C 172.7694854736328 -11.33793640136719 172.8119812011719 -12.42589950561523 172.49267578125 -13.45389938354492 C 171.9379119873047 -15.23997497558594 171.2949523925781 -16.55113220214844 170.5816802978516 -17.35093688964844 C 170.0203704833984 -17.98040008544922 169.4474182128906 -18.27351379394531 168.7784881591797 -18.2734375 C 167.7744445800781 -18.27336120605469 166.5155944824219 -17.62639617919922 164.9300689697266 -16.29566955566406 C 163.3969116210938 -15.00886154174805 161.7485961914063 -13.23482131958008 160.1545715332031 -11.51920700073242 C 156.6402587890625 -7.736858367919922 153.3208312988281 -4.164283752441406 150.1302947998047 -4.164283752441406 C 149.1684875488281 -4.164283752441406 148.2832183837891 -4.490245819091797 147.4990234375 -5.133129119873047 C 146.9638671875 -5.571937561035156 146.8218383789063 -6.362014770507813 146.3064422607422 -9.638168334960938 C 145.8597869873047 -12.47766876220703 145.2480621337891 -16.36647796630859 144.1832885742188 -19.93936157226563 C 142.9695281982422 -24.01232147216797 141.4484100341797 -26.68978118896484 139.6622161865234 -27.89739990234375 L 139.3137512207031 -28.1329345703125 L 139.2384490966797 -28.54674530029297 C 139.1582183837891 -28.98770904541016 138.9762115478516 -29.26901245117188 138.6483764648438 -29.45882415771484 C 138.2822113037109 -29.67086029052734 137.727294921875 -29.7783203125 136.9989929199219 -29.77824401855469 C 135.1571044921875 -29.77809143066406 132.6050567626953 -29.09635925292969 130.1370697021484 -28.43704986572266 C 127.6525650024414 -27.77332305908203 125.3058700561523 -27.14643859863281 123.5264129638672 -27.14643859863281 C 122.2138290405273 -27.14643859863281 121.2957534790039 -27.49085998535156 120.7197952270508 -28.19940185546875 C 120.1594848632813 -28.88866424560547 120.0039520263672 -29.85428619384766 120.2574462890625 -31.06935882568359 L 120.2934875488281 -31.24208831787109 L 120.3864440917969 -31.39201354980469 C 131.8304901123047 -49.85240173339844 135.1706848144531 -61.62358856201172 133.4312133789063 -64.74843597412109 C 133.1255950927734 -65.29743957519531 132.6647186279297 -65.54224395751953 131.9358673095703 -65.54224395751953 C 131.3000640869141 -65.54206085205078 130.171142578125 -65.33531188964844 128.3512573242188 -64.38115692138672 C 123.4023208618164 -52.51599884033203 119.072135925293 -43.82368469238281 115.4794464111328 -38.54343414306641 C 113.8421783447266 -36.13716888427734 112.3586044311523 -34.41366577148438 110.9439468383789 -33.27443695068359 C 109.5816802978516 -32.17743682861328 108.31005859375 -31.6441650390625 107.0564117431641 -31.6441650390625 C 104.4409866333008 -31.6441650390625 102.8324127197266 -33.94151306152344 101.5398712158203 -35.78751373291016 C 101.1403656005859 -36.35809326171875 100.7629852294922 -36.89701080322266 100.4189910888672 -37.27278137207031 C 100.3355407714844 -37.36392211914063 100.2625045776367 -37.43608856201172 100.1993560791016 -37.49322509765625 C 99.6065673828125 -36.77107238769531 98.495849609375 -35.53939819335938 96.92429351806641 -34.30513000488281 C 93.73291015625 -31.79866790771484 90.13552856445313 -30.47382354736328 86.52106475830078 -30.47382354736328 C 82.89974975585938 -30.47382354736328 79.21548461914063 -31.76955413818359 75.5706787109375 -34.32497406005859 C 72.39360046386719 -36.55247497558594 71.10329437255859 -40.79062652587891 71.62602233886719 -47.28163146972656 C 72.07009887695313 -52.79605102539063 73.74098205566406 -59.38378143310547 75.35687255859375 -65.75463104248047 C 78.06356811523438 -76.42620849609375 80.86241149902344 -87.46112823486328 77.37895202636719 -91.93831634521484 C 76.21771240234375 -93.43082427978516 74.37632751464844 -94.15631866455078 71.74967956542969 -94.15624237060547 L 71.74964141845703 -94.15624237060547 M 71.74964141845703 -95.15624237060547 C 94.16987609863281 -95.15680694580078 62.27900695800781 -44.86526489257813 76.14476013183594 -35.14378356933594 C 79.9783935546875 -32.45596313476563 83.4681396484375 -31.47381591796875 86.52107238769531 -31.47381591796875 C 94.80780029296875 -31.47381591796875 99.87718200683594 -38.70932006835938 99.87718200683594 -38.70932006835938 C 101.8517761230469 -38.70932006835938 103.4182434082031 -32.64415740966797 107.056396484375 -32.64415740966797 C 110.799072265625 -32.64415740966797 116.7342071533203 -39.05892181396484 127.5650253295898 -65.09432220458984 C 129.3595275878906 -66.07645416259766 130.8132019042969 -66.54191589355469 131.9355773925781 -66.54225158691406 C 138.3219909667969 -66.54416656494141 134.0201873779297 -51.48666381835938 121.2363739013672 -30.86512756347656 C 120.8105087280273 -28.82401275634766 121.8030319213867 -28.14643096923828 123.5263977050781 -28.14643096923828 C 126.9244689941406 -28.14643096923828 133.1673126220703 -30.77793884277344 136.9988861083984 -30.77824401855469 C 138.7135467529297 -30.77838134765625 139.9445953369141 -30.25149536132813 140.2222900390625 -28.72582244873047 C 146.5509490966797 -24.44716644287109 147.1880950927734 -6.681282043457031 148.1331024169922 -5.906398773193359 C 148.7600555419922 -5.392391204833984 149.4287261962891 -5.164302825927734 150.1303100585938 -5.164302825927734 C 155.6494140625 -5.164302825927734 163.219482421875 -19.27294921875 168.7784118652344 -19.27345275878906 C 170.5978393554688 -19.27362060546875 172.2015380859375 -17.76243591308594 173.4476776123047 -13.75055313110352 C 176.0835571289063 -5.264629364013672 157.5394897460938 4.540679931640625 153.6706848144531 12.6344108581543 C 149.5889129638672 21.17494773864746 162.37255859375 26.18344688415527 162.37255859375 26.18344688415527 C 162.37255859375 31.0914478302002 144.1777191162109 35.45387268066406 194.8068695068359 37.59317779541016 C 209.0121917724609 47.30745315551758 195.1022033691406 48.24917221069336 181.6405944824219 48.24917221069336 C 178.4069061279297 48.24917221069336 175.1993103027344 48.19489288330078 172.4127502441406 48.19489288330078 C 168.0653991699219 48.19489288330078 164.7472686767578 48.32676315307617 163.9547119140625 49.00291061401367 C 150.5063323974609 61.12571716308594 168.7012176513672 64.69125366210938 160.7904052734375 71.82233428955078 C 158.7842254638672 73.63078308105469 157.1334991455078 74.01760864257813 155.6718597412109 74.01760864257813 C 154.5806427001953 74.01760864257813 153.59423828125 73.80218505859375 152.6432495117188 73.80218505859375 C 149.8451538085938 73.80218505859375 147.3527984619141 75.66492462158203 143.3866424560547 90.36314392089844 C 136.2668762207031 116.7481002807617 179.7763366699219 120.3136367797852 165.5369110107422 131.0102844238281 C 162.2765808105469 133.4594268798828 159.0201263427734 137.0473480224609 155.2830352783203 137.0473480224609 C 151.2999725341797 137.0473480224609 146.770751953125 132.9752807617188 141.1029815673828 119.108757019043 C 135.0738067626953 104.3580322265625 131.0392761230469 100.0653915405273 125.5255889892578 100.0653915405273 C 120.9929885864258 100.0653915405273 115.4611511230469 102.9646377563477 106.9969100952148 105.3384094238281 C 105.8833465576172 105.6507034301758 104.8137893676758 105.7858963012695 103.7768783569336 105.7858963012695 C 97.10485076904297 105.7858963012695 91.76931762695313 100.1912689208984 84.54780578613281 100.1912689208984 C 83.87354278564453 100.1912689208984 83.18318176269531 100.2400054931641 82.47340393066406 100.3466415405273 C 81.95846557617188 99.98560333251953 81.51780700683594 99.81848907470703 81.13926696777344 99.81848907470703 C 76.45336151123047 99.81848907470703 81.25546264648438 125.4079818725586 71.70000457763672 125.4079818725586 C 71.35475921630859 125.4079818725586 70.99107360839844 125.3746109008789 70.60721588134766 125.3054122924805 C 58.74098968505859 123.1660995483398 68.02214050292969 91.87783050537109 61.11421966552734 90.36314392089844 C 59.5367431640625 90.01725006103516 58.07612609863281 89.85342407226563 56.72758483886719 89.85342407226563 C 33.36711120605469 89.85342407226563 42.85336303710938 138.8810882568359 33.04030609130859 138.8810882568359 C 32.90879058837891 138.8810882568359 32.77390289306641 138.8722839355469 32.63533020019531 138.8544464111328 C 21.5601806640625 137.4282531738281 28.67990875244141 90.36314392089844 28.67990875244141 90.36314392089844 C 26.85613250732422 89.4237060546875 25.20925903320313 89.00152587890625 23.71073913574219 89.00152587890625 C 10.41178894042969 89.00152587890625 8.790824890136719 122.2505645751953 -1.2135009765625 122.2505645751953 C -3.773086547851563 122.2505645751953 -6.881011962890625 120.0747528076172 -10.87413024902344 114.6087951660156 C -13.64077758789063 111.8262176513672 13.64936828613281 99.63352966308594 8.111831665039063 75.38787078857422 C 4.482437133789063 74.02468109130859 0.94158935546875 73.43730926513672 -2.51611328125 73.43730926513672 C -24.00257873535156 73.43730926513672 -42.33372497558594 96.10679626464844 -59.47114562988281 96.10679626464844 C -61.21592712402344 96.10679626464844 -62.94549560546875 95.87237548828125 -64.66763305664063 95.35490417480469 C -70.2052001953125 60.41263961791992 -11.82901000976563 73.91909790039063 -10.87413024902344 64.84375762939453 C -25.9046630859375 48.44229507446289 -23.53143310546875 31.91002464294434 -23.53143310546875 27.60967826843262 C -23.53143310546875 -5.906398773193359 -81.28031921386719 11.20821762084961 -74.16058349609375 -8.758823394775391 C -72.89039611816406 -12.32104873657227 -70.20867919921875 -13.65895080566406 -66.63502502441406 -13.65932083129883 C -55.85659790039063 -13.66044235229492 -36.94837951660156 -1.491954803466797 -24.088623046875 -1.491954803466797 C -17.31304931640625 -1.491954803466797 -12.21980285644531 -4.866012573242188 -10.87413024902344 -15.17678451538086 C -7.492340087890625 -22.18824768066406 -5.844696044921875 -23.46588897705078 -3.08966064453125 -23.46588897705078 C -1.511154174804688 -23.46588897705078 0.4322052001953125 -23.04666137695313 3.27294921875 -23.04666137695313 C 7.072158813476563 -23.04666137695313 12.47666168212891 -23.79563903808594 20.76910400390625 -27.29959106445313 C 45.24315643310547 -37.64108276367188 1.691207885742188 -76.64369964599609 18.78840637207031 -76.64469146728516 C 19.37558746337891 -76.64472961425781 20.03364562988281 -76.59876251220703 20.76910400390625 -76.50405120849609 C 41.68099212646484 -73.81106567382813 29.45424652099609 -36.15902709960938 51.32032775878906 -36.15902709960938 C 52.61521911621094 -36.15902709960938 54.02870178222656 -36.29093170166016 55.57667541503906 -36.57001495361328 C 83.26448059082031 -41.56174468994141 43.71044921875 -92.19240570068359 69.81610107421875 -95.04482269287109 C 70.50125122070313 -95.11968231201172 71.14535522460938 -95.15622711181641 71.74964141845703 -95.15624237060547 Z" stroke="none" fill="#fff"/></g><text transform="translate(275 437)" fill="#fff" font-size="135" font-family="BellMT, Bell MT"><tspan x="0" y="0">R</tspan></text></g><g transform="translate(-11 -509.5)"><g transform="translate(68 631)" fill="#8a0000"><path d="M 69.95973968505859 74 L 33.04026412963867 74 C 28.65491676330566 74 24.40032958984375 73.031494140625 20.39470291137695 71.12139892578125 C 16.52104949951172 69.27422332763672 13.04102325439453 66.62857055664063 10.0513162612915 63.2579460144043 C 7.057782649993896 59.88298797607422 4.70711612701416 55.95186614990234 3.064609527587891 51.57376098632813 C 1.362849473953247 47.03774642944336 0.4999961853027344 42.21853256225586 0.4999961853027344 37.25 C 0.4999961853027344 32.28146743774414 1.362849473953247 27.46226692199707 3.064596176147461 22.92625427246094 C 4.70711612701416 18.54814720153809 7.057782649993896 14.6170129776001 10.0513162612915 11.24205303192139 C 13.04102325439453 7.871426582336426 16.52104949951172 5.225786685943604 20.39470291137695 3.378599882125854 C 24.40032958984375 1.468506693840027 28.65491676330566 0.5 33.04026412963867 0.5 L 69.95973968505859 0.5 C 74.3450927734375 0.5 78.59966278076172 1.468506693840027 82.60529327392578 3.378599882125854 C 86.47895812988281 5.225786685943604 89.95896911621094 7.871426582336426 92.94867706298828 11.24205303192139 C 95.94220733642578 14.6170129776001 98.29287719726563 18.54814720153809 99.93539428710938 22.92625427246094 C 101.6371459960938 27.46226692199707 102.5 32.28146743774414 102.5 37.25 C 102.5 42.21853256225586 101.6371459960938 47.03773498535156 99.93539428710938 51.57376098632813 C 98.29287719726563 55.95186614990234 95.94220733642578 59.88298797607422 92.94867706298828 63.2579460144043 C 89.95896911621094 66.62857055664063 86.47895812988281 69.27422332763672 82.60529327392578 71.12139892578125 C 78.59966278076172 73.031494140625 74.3450927734375 74 69.95973968505859 74 Z" stroke="none"/><path d="M 33.04025268554688 1 C 28.72994995117188 1 24.54779815673828 1.952117919921875 20.60990905761719 3.829917907714844 C 16.7969970703125 5.64813232421875 13.37042236328125 8.253555297851563 10.42538452148438 11.5738410949707 C 7.47265625 14.90277099609375 5.153640747070313 18.78135681152344 3.532737731933594 23.10187149047852 C 1.852142333984375 27.58154296875 0.9999923706054688 32.34165573120117 0.9999923706054688 37.25 C 0.9999923706054688 42.15834426879883 1.852142333984375 46.91845703125 3.532737731933594 51.39812850952148 C 5.153640747070313 55.71864318847656 7.47265625 59.59722900390625 10.42538452148438 62.92615509033203 C 13.37042236328125 66.24644470214844 16.7969970703125 68.85186767578125 20.60990905761719 70.67008209228516 C 24.54779815673828 72.54788208007813 28.72994995117188 73.5 33.04025268554688 73.5 L 69.95973968505859 73.5 C 74.27003479003906 73.5 78.45219421386719 72.54788208007813 82.39008331298828 70.67008209228516 C 86.20299530029297 68.85186767578125 89.62957000732422 66.24644470214844 92.57460784912109 62.92615509033203 C 95.52733612060547 59.59722900390625 97.84635162353516 55.71864318847656 99.46725463867188 51.39812850952148 C 101.1478500366211 46.91845703125 102 42.15834426879883 102 37.25 C 102 32.34165573120117 101.1478500366211 27.58154296875 99.46725463867188 23.10187149047852 C 97.84635162353516 18.78135681152344 95.52733612060547 14.90277099609375 92.57460784912109 11.5738410949707 C 89.62957000732422 8.253555297851563 86.20299530029297 5.64813232421875 82.39008331298828 3.829917907714844 C 78.45219421386719 1.952117919921875 74.27003479003906 1 69.95973968505859 1 L 33.04025268554688 1 M 33.04025268554688 0 L 69.95973968505859 0 C 88.20736694335938 0 103 16.67738723754883 103 37.25 C 103 57.82261657714844 88.20736694335938 74.5 69.95973968505859 74.5 L 33.04025268554688 74.5 C 14.79262542724609 74.5 -7.62939453125e-06 57.82261657714844 -7.62939453125e-06 37.25 C -7.62939453125e-06 16.67738723754883 14.79262542724609 0 33.04025268554688 0 Z" stroke="none" fill="#fff"/></g><g transform="translate(154.708 641.5) rotate(90)" fill="#fff"><path d="M 53.70676422119141 56.5 L 0.793235719203949 56.5 L 27.25 1.159245371818542 L 53.70676422119141 56.5 Z" stroke="none"/><path d="M 27.25 2.318489074707031 L 1.586471557617188 56 L 52.91352844238281 56 L 27.25 2.318489074707031 M 27.25 0 L 54.5 57 L 0 57 L 27.25 0 Z" stroke="none" fill="#8a0000"/></g></g><g transform="translate(-37 -194)"><ellipse cx="20.5" cy="17.5" rx="20.5" ry="17.5" transform="translate(40 355)" fill="#fff"/><rect width="35" height="18" rx="4" transform="translate(42 364)" fill="#2c3e50"/></g><g transform="translate(-37 -286)"><ellipse cx="20" cy="17.5" rx="20" ry="17.5" transform="translate(40 401)" fill="#2c3e50"/><rect width="40" height="18" rx="4" transform="translate(37 410)" fill="#fff"/></g></svg>